# xmcd
#
# Track frame offsets:
#	187
#	19455
#	43025
#	66602
#	77612
#	96777
#	116002
#	139637
#
# Disc length: 2114 seconds
#
# Revision: 1
# Processed by: cddbd v1.5.1PL0 Copyright (c) Steve Scherf et al.
# Submitted via: CDex 1.50Beta5
#
DISCID=6d084008
DTITLE=伊藤真澄 - CLAMP学園放送部 オフィシャル・テーマ・ソング・コレクション
DYEAR=1997
DGENRE=
TTITLE0=伊藤真澄/Dance The Crest
TTITLE1=ラジオ・サントラ/Across The Star
TTITLE2=YUKI/お願い! CUPID
TTITLE3=ラジオ・サントラ/GAVOTTE
TTITLE4=広谷順子/BLANC
TTITLE5=Dance The Crest
TTITLE6=お願い! CUPID
TTITLE7=BLANC
EXTD=
EXTT0=
EXTT1=
EXTT2=
EXTT3=
EXTT4=
EXTT5=
EXTT6=
EXTT7=
PLAYORDER=
